<svg xmlns="http://www.w3.org/2000/svg" style="display: none;"><symbol id="update-arrow" viewBox="0 0 322.447 322.447"><title>update-arrow</title><path d="M321.832,230.327c-2.133-6.565-9.184-10.154-15.75-8.025l-16.254,5.281C299.785,206.991,305,184.347,305,161.224 c0-84.089-68.41-152.5-152.5-152.5C68.411,8.724,0,77.135,0,161.224s68.411,152.5,152.5,152.5c6.903,0,12.5-5.597,12.5-12.5 c0-6.902-5.597-12.5-12.5-12.5c-70.304,0-127.5-57.195-127.5-127.5c0-70.304,57.196-127.5,127.5-127.5 c70.305,0,127.5,57.196,127.5,127.5c0,19.372-4.371,38.337-12.723,55.568l-5.553-17.096c-2.133-6.564-9.186-10.156-15.75-8.025 c-6.566,2.134-10.16,9.186-8.027,15.751l14.74,45.368c1.715,5.283,6.615,8.642,11.885,8.642c1.279,0,2.582-0.198,3.865-0.614 l45.369-14.738C320.371,243.946,323.965,236.895,321.832,230.327z"/></symbol><symbol id="settings" viewBox="0 0 512 512"><title>settings</title><path d="m272.066 512h-32.133c-25.989 0-47.134-21.144-47.134-47.133v-10.871c-11.049-3.53-21.784-7.986-32.097-13.323l-7.704 7.704c-18.659 18.682-48.548 18.134-66.665-.007l-22.711-22.71c-18.149-18.129-18.671-48.008.006-66.665l7.698-7.698c-5.337-10.313-9.792-21.046-13.323-32.097h-10.87c-25.988 0-47.133-21.144-47.133-47.133v-32.134c0-25.989 21.145-47.133 47.134-47.133h10.87c3.531-11.05 7.986-21.784 13.323-32.097l-7.704-7.703c-18.666-18.646-18.151-48.528.006-66.665l22.713-22.712c18.159-18.184 48.041-18.638 66.664.006l7.697 7.697c10.313-5.336 21.048-9.792 32.097-13.323v-10.87c0-25.989 21.144-47.133 47.134-47.133h32.133c25.989 0 47.133 21.144 47.133 47.133v10.871c11.049 3.53 21.784 7.986 32.097 13.323l7.704-7.704c18.659-18.682 48.548-18.134 66.665.007l22.711 22.71c18.149 18.129 18.671 48.008-.006 66.665l-7.698 7.698c5.337 10.313 9.792 21.046 13.323 32.097h10.87c25.989 0 47.134 21.144 47.134 47.133v32.134c0 25.989-21.145 47.133-47.134 47.133h-10.87c-3.531 11.05-7.986 21.784-13.323 32.097l7.704 7.704c18.666 18.646 18.151 48.528-.006 66.665l-22.713 22.712c-18.159 18.184-48.041 18.638-66.664-.006l-7.697-7.697c-10.313 5.336-21.048 9.792-32.097 13.323v10.871c0 25.987-21.144 47.131-47.134 47.131zm-106.349-102.83c14.327 8.473 29.747 14.874 45.831 19.025 6.624 1.709 11.252 7.683 11.252 14.524v22.148c0 9.447 7.687 17.133 17.134 17.133h32.133c9.447 0 17.134-7.686 17.134-17.133v-22.148c0-6.841 4.628-12.815 11.252-14.524 16.084-4.151 31.504-10.552 45.831-19.025 5.895-3.486 13.4-2.538 18.243 2.305l15.688 15.689c6.764 6.772 17.626 6.615 24.224.007l22.727-22.726c6.582-6.574 6.802-17.438.006-24.225l-15.695-15.695c-4.842-4.842-5.79-12.348-2.305-18.242 8.473-14.326 14.873-29.746 19.024-45.831 1.71-6.624 7.684-11.251 14.524-11.251h22.147c9.447 0 17.134-7.686 17.134-17.133v-32.134c0-9.447-7.687-17.133-17.134-17.133h-22.147c-6.841 0-12.814-4.628-14.524-11.251-4.151-16.085-10.552-31.505-19.024-45.831-3.485-5.894-2.537-13.4 2.305-18.242l15.689-15.689c6.782-6.774 6.605-17.634.006-24.225l-22.725-22.725c-6.587-6.596-17.451-6.789-24.225-.006l-15.694 15.695c-4.842 4.843-12.35 5.791-18.243 2.305-14.327-8.473-29.747-14.874-45.831-19.025-6.624-1.709-11.252-7.683-11.252-14.524v-22.15c0-9.447-7.687-17.133-17.134-17.133h-32.133c-9.447 0-17.134 7.686-17.134 17.133v22.148c0 6.841-4.628 12.815-11.252 14.524-16.084 4.151-31.504 10.552-45.831 19.025-5.896 3.485-13.401 2.537-18.243-2.305l-15.688-15.689c-6.764-6.772-17.627-6.615-24.224-.007l-22.727 22.726c-6.582 6.574-6.802 17.437-.006 24.225l15.695 15.695c4.842 4.842 5.79 12.348 2.305 18.242-8.473 14.326-14.873 29.746-19.024 45.831-1.71 6.624-7.684 11.251-14.524 11.251h-22.148c-9.447.001-17.134 7.687-17.134 17.134v32.134c0 9.447 7.687 17.133 17.134 17.133h22.147c6.841 0 12.814 4.628 14.524 11.251 4.151 16.085 10.552 31.505 19.024 45.831 3.485 5.894 2.537 13.4-2.305 18.242l-15.689 15.689c-6.782 6.774-6.605 17.634-.006 24.225l22.725 22.725c6.587 6.596 17.451 6.789 24.225.006l15.694-15.695c3.568-3.567 10.991-6.594 18.244-2.304z"/><path d="m256 367.4c-61.427 0-111.4-49.974-111.4-111.4s49.973-111.4 111.4-111.4 111.4 49.974 111.4 111.4-49.973 111.4-111.4 111.4zm0-192.8c-44.885 0-81.4 36.516-81.4 81.4s36.516 81.4 81.4 81.4 81.4-36.516 81.4-81.4-36.515-81.4-81.4-81.4z"/></symbol><symbol id="close" viewBox="0 0 329.26933 329"><title>close</title><path d="m194.800781 164.769531 128.210938-128.214843c8.34375-8.339844 8.34375-21.824219 0-30.164063-8.339844-8.339844-21.824219-8.339844-30.164063 0l-128.214844 128.214844-128.210937-128.214844c-8.34375-8.339844-21.824219-8.339844-30.164063 0-8.34375 8.339844-8.34375 21.824219 0 30.164063l128.210938 128.214843-128.210938 128.214844c-8.34375 8.339844-8.34375 21.824219 0 30.164063 4.15625 4.160156 9.621094 6.25 15.082032 6.25 5.460937 0 10.921875-2.089844 15.082031-6.25l128.210937-128.214844 128.214844 128.214844c4.160156 4.160156 9.621094 6.25 15.082032 6.25 5.460937 0 10.921874-2.089844 15.082031-6.25 8.34375-8.339844 8.34375-21.824219 0-30.164063zm0 0"/></symbol><symbol id="scale" viewBox="0 0 464.985 464.985"><title>scale</title><path d="M457.145,218.479L386.092,75.327c-1.875-3.465-5.465-5.659-9.404-5.747l-4.702,1.045h-91.951 c-6.798-26.257-33.594-42.032-59.851-35.235c-17.274,4.472-30.763,17.961-35.235,35.235H92.998l-4.702-1.045 c-3.939,0.088-7.529,2.282-9.404,5.747L7.839,218.479c-4.655,1.001-7.943,5.166-7.837,9.927c0,43.886,39.706,79.935,88.294,79.935 s88.816-36.049,88.816-79.935c-0.086-4.694-3.291-8.754-7.837-9.927L106.06,91.523h78.367 c3.951,18.899,18.717,33.665,37.616,37.616v183.38c-33.959,4.18-60.604,29.78-64.784,55.902h-22.988 c-6.132,0.493-11.001,5.362-11.494,11.494v41.796c0.545,5.745,5.645,9.96,11.39,9.414c0.035-0.003,0.069-0.007,0.104-0.01h196.441 c5.739,0.603,10.881-3.561,11.483-9.3c0.004-0.035,0.007-0.069,0.01-0.104v-41.796c-0.493-6.132-5.362-11.001-11.494-11.494 h-22.988c-4.18-26.122-30.825-51.722-64.784-55.902V129.14c18.899-3.951,33.665-18.717,37.616-37.616h78.367l-63.216,126.955 c-4.545,1.173-7.751,5.233-7.837,9.927c0,43.886,39.706,79.935,88.816,79.935c49.11,0,88.294-36.049,88.294-79.935 C465.089,223.645,461.8,219.48,457.145,218.479z M88.296,286.397c-32.914,0-60.604-22.465-66.351-48.588H155.17 C149.423,263.932,121.733,286.397,88.296,286.397z M145.766,216.911H31.349l56.947-114.416L145.766,216.911z M321.309,389.319 v20.898H143.676v-20.898H321.309z M286.305,368.421H178.68c4.18-20.898,26.645-36.571,53.812-36.571 S282.125,347.523,286.305,368.421z M232.492,109.809c-15.581,0-28.212-12.631-28.212-28.212c0-15.581,12.631-28.212,28.212-28.212 c15.581,0,28.212,12.631,28.212,28.212C260.705,97.178,248.073,109.809,232.492,109.809z M376.688,102.495l56.947,114.416H319.219 L376.688,102.495z M376.688,286.397c-33.437,0-61.127-22.465-66.873-48.588h133.224 C437.292,263.932,409.603,286.397,376.688,286.397z"/></symbol><symbol id="rec" viewBox="0 0 341.333 341.333"><title>rec</title><path d="M170.667,0C76.41,0,0,76.41,0,170.667s76.41,170.667,170.667,170.667s170.667-76.41,170.667-170.667S264.923,0,170.667,0z M170.667,298.667c-70.692,0-128-57.308-128-128s57.308-128,128-128s128,57.308,128,128S241.359,298.667,170.667,298.667z"/></symbol><symbol id="monitor-levels" viewBox="0 0 486.883 486.883"><title>monitor-levels</title><path d="M243.451,0C109.226,0,0.001,109.191,0.001,243.417c0,134.244,109.226,243.466,243.45,243.466 s243.431-109.222,243.431-243.466C486.882,109.191,377.676,0,243.451,0z M243.451,437.958c-0.237,0-0.479-0.033-0.716-0.033V48.96 c0.237,0,0.479-0.035,0.716-0.035c107.247,0,194.506,87.246,194.506,194.492C437.957,350.682,350.698,437.958,243.451,437.958z"/></symbol></svg>